<svg width="84" height="79" xmlns="http://www.w3.org/2000/svg" xmlns:xlink="http://www.w3.org/1999/xlink" xml:space="preserve" overflow="hidden"><g transform="translate(-611 -310)"><path d="M58.3283 36.9325C63.9818 35.3854 68.8699 31.2708 68.8699 28.547 68.8699 24.6875 59.0443 21.6016 59.0443 21.6016L58.4271 21.4617C58.2214 16.4583 50.8151 13.9896 46.5113 19.3715L44.8654 19.75 44.8654 19.75C28.0697 22.6878 12.6811 35.3854 10.451 52.2305 10.1166 54.7959 11.5335 57.2696 13.9155 58.279L18.5897 60.254 17.9478 61.0769C17.2304 62.0043 17.4006 63.3378 18.3281 64.0553 18.4997 64.188 18.6906 64.2937 18.8942 64.3685L18.8942 64.3685C22.6035 65.3441 26.4232 65.8365 30.2586 65.8333L42.6024 65.8333 38.4878 62.5417 42.6024 59.25 32.7603 59.25C37.078 55.918 37.877 49.7168 34.5451 45.3992 32.6844 42.988 29.8151 41.5703 26.7695 41.5573 25.9075 41.5398 25.0477 41.6507 24.2184 41.8865 23.5594 42.0455 22.8963 41.6402 22.7372 40.9813 22.5781 40.3223 22.9834 39.6591 23.6424 39.5 24.6932 39.2419 25.7699 39.1038 26.8518 39.0885 33.6691 39.0885 39.1955 44.615 39.1955 51.4323 39.182 52.8994 38.9032 54.3519 38.3726 55.7197 41.2084 53.5644 43.7217 51.015 45.8365 48.1489L45.8365 51.0208C45.8366 51.4414 45.9443 51.8549 46.1492 52.2223L50.2638 59.6285C50.7066 60.4236 51.551 60.9107 52.4609 60.8958L63.9818 60.8958 61.513 58.4271 63.9818 55.9583 53.9175 55.9583 50.8151 50.379 50.8151 42.7917C52.3333 39.8265 55.0827 37.6825 58.3283 36.9325Z" transform="matrix(1.06329 0 0 1 611 310)"/></g></svg>